<svg xmlns="http://www.w3.org/2000/svg" xmlns:xlink="http://www.w3.org/1999/xlink" width="100" zoomAndPan="magnify" viewBox="0 0 75 74.999997" height="100" preserveAspectRatio="xMidYMid meet" version="1.0"><defs><clipPath id="83a3cd2e78"><path d="M 1.59375 0 L 73 0 L 73 75 L 1.59375 75 Z M 1.59375 0 " clip-rule="nonzero"/></clipPath></defs><rect x="-7.5" width="90" fill="#ffffff" y="-7.5" height="89.999996" fill-opacity="1"/><rect x="-7.5" width="90" fill="#ffffff" y="-7.5" height="89.999996" fill-opacity="1"/><g clip-path="url(#83a3cd2e78)"><path fill="#000000" d="M 1.59375 0.300781 L 1.59375 74.699219 L 63.214844 74.699219 L 63.214844 43.648438 L 69.859375 37.011719 L 70.355469 36.535156 C 70.355469 36.527344 70.355469 36.527344 70.355469 36.519531 L 71 35.882812 C 73.597656 33.292969 73.597656 29.089844 71 26.5 C 68.890625 24.398438 65.722656 24.035156 63.214844 25.351562 L 63.214844 0.300781 Z M 12.945312 19.707031 L 19.429688 19.707031 L 19.429688 22.945312 L 12.945312 22.945312 Z M 24.296875 19.707031 L 51.863281 19.707031 L 51.863281 22.945312 L 24.296875 22.945312 Z M 12.945312 29.414062 L 19.429688 29.414062 L 19.429688 32.648438 L 12.945312 32.648438 Z M 24.296875 29.414062 L 51.863281 29.414062 L 51.863281 32.648438 L 24.296875 32.648438 Z M 62.726562 29.898438 L 67.59375 34.75 L 45.066406 57.21875 L 40.203125 52.367188 Z M 12.945312 39.117188 L 19.429688 39.117188 L 19.429688 42.351562 L 12.945312 42.351562 Z M 24.296875 39.117188 L 48.945312 39.117188 L 45.707031 42.351562 L 24.296875 42.351562 Z M 12.945312 48.820312 L 19.429688 48.820312 L 19.429688 52.054688 L 12.945312 52.054688 Z M 24.296875 48.820312 L 39.21875 48.820312 L 35.976562 52.054688 L 24.296875 52.054688 Z M 37.914062 54.660156 L 42.769531 59.5 L 36.136719 61.273438 Z M 37.914062 54.660156 " fill-opacity="1" fill-rule="nonzero"/></g></svg>